<svg width="455" height="305" viewBox="0 0 455 305" fill="none" xmlns="http://www.w3.org/2000/svg">
<path fill-rule="evenodd" clip-rule="evenodd" d="M2 -10H170V181H2V-10Z" fill="#4AF6CD"/>
<path opacity="0.0654018" d="M61.6 2.39999C80.1333 2.39999 96.0667 8.26666 109.4 20L91.2 39C86.1333 35.4 81.5333 32.8 77.4 31.2C73.4 29.4667 68.8 28.6 63.6 28.6C53.6 28.6 45.7333 32.4667 40 40.2C34.4 47.9333 31.6 59.7333 31.6 75.6C31.6 87.2 32.5333 96.4 34.4 103.2C36.2667 109.867 39.0667 114.667 42.8 117.6C46.6667 120.533 51.6 122 57.6 122C63.6 122 69.0667 120.733 74 118.2V89.6H58.2L54.6 64.2H109.8V133.4C102.6 138.2 94.4667 141.933 85.4 144.6C76.3333 147.267 67.4 148.6 58.6 148.6C15.1333 148.6 -6.6 124.2 -6.6 75.4C-6.6 60.2 -3.66667 47.1333 2.2 36.2C8.2 25.1333 16.3333 16.7333 26.6 11C36.8667 5.26666 48.5333 2.39999 61.6 2.39999ZM186.883 2.39999C207.016 2.39999 222.683 8.79999 233.883 21.6C245.083 34.4 250.683 52.3333 250.683 75.4C250.683 90.4667 248.149 103.533 243.083 114.6C238.149 125.533 230.883 133.933 221.283 139.8C211.683 145.667 200.216 148.6 186.883 148.6C166.749 148.6 151.083 142.2 139.883 129.4C128.816 116.6 123.283 98.6 123.283 75.4C123.283 60.3333 125.749 47.3333 130.683 36.4C135.749 25.4667 143.016 17.0667 152.483 11.2C162.083 5.33332 173.549 2.39999 186.883 2.39999ZM186.883 29C178.216 29 171.816 32.6 167.683 39.8C163.683 47 161.683 58.8667 161.683 75.4C161.683 91.9333 163.749 103.867 167.883 111.2C172.016 118.4 178.349 122 186.883 122C195.683 122 202.083 118.4 206.083 111.2C210.083 104 212.083 92.0667 212.083 75.4C212.083 58.8667 210.083 47 206.083 39.8C202.083 32.6 195.683 29 186.883 29ZM46.8 158.4C57.3333 158.4 66.6 159.933 74.6 163C82.7333 166.067 90 170.667 96.4 176.8L79.8 196.4C70.2 188.8 60.1333 185 49.6 185C44.1333 185 39.9333 186.067 37 188.2C34.2 190.2 32.8 193.067 32.8 196.8C32.8 199.467 33.5333 201.667 35 203.4C36.4667 205.133 38.9333 206.8 42.4 208.4C45.8667 210 51.3333 212 58.8 214.4C73.0667 218.933 83.4667 224.667 90 231.6C96.6667 238.4 100 247.867 100 260C100 268.8 97.7333 276.6 93.2 283.4C88.6667 290.067 82.0667 295.267 73.4 299C64.8667 302.733 54.8 304.6 43.2 304.6C21.0667 304.6 3 297.867 -11 284.4L7.2 264.2C18.2667 273.267 29.8 277.8 41.8 277.8C48.0667 277.8 52.9333 276.467 56.4 273.8C59.8667 271 61.6 267.333 61.6 262.8C61.6 259.6 60.9333 257 59.6 255C58.2667 252.867 55.8667 251 52.4 249.4C49.0667 247.667 44.1333 245.8 37.6 243.8C21.8667 238.867 10.8 232.933 4.4 226C-2 219.067 -5.2 210.333 -5.2 199.8C-5.2 191.533 -3 184.267 1.4 178C5.93333 171.733 12.1333 166.933 20 163.6C28 160.133 36.9333 158.4 46.8 158.4ZM224.816 254.4C224.816 264 222.682 272.6 218.416 280.2C214.282 287.8 208.016 293.8 199.616 298.2C191.216 302.467 180.949 304.6 168.816 304.6C150.416 304.6 136.482 300.133 127.016 291.2C117.549 282.133 112.816 269.867 112.816 254.4V162H149.816V253.2C149.816 261.6 151.282 267.8 154.216 271.8C157.282 275.667 162.149 277.6 168.816 277.6C175.482 277.6 180.282 275.6 183.216 271.6C186.149 267.6 187.616 261.467 187.616 253.2V162H224.816V254.4ZM291.508 249.8H281.308V301H244.308V162H292.508C312.108 162 326.708 165.533 336.308 172.6C346.041 179.667 350.908 190.533 350.908 205.2C350.908 214 348.841 221.333 344.708 227.2C340.708 233.067 334.241 238.333 325.308 243L359.908 301H318.708L291.508 249.8ZM281.308 224.6H293.708C306.508 224.6 312.908 218.133 312.908 205.2C312.908 199.2 311.108 194.8 307.508 192C304.041 189.2 298.774 187.8 291.708 187.8H281.308V224.6ZM368.331 301V162H453.731L449.931 188.2H405.331V221.6H444.531V247.8H405.331V301H368.331Z" fill="white"/>
<path d="M62.22 145.36C62.22 142.2 62.68 139.42 63.6 137.02C64.52 134.58 65.9 132.4 67.74 130.48L73.62 135.46C71.34 138.34 70.2 141.36 70.2 144.52C70.2 146.16 70.52 147.42 71.16 148.3C71.76 149.14 72.62 149.56 73.74 149.56C74.54 149.56 75.2 149.34 75.72 148.9C76.24 148.46 76.74 147.72 77.22 146.68C77.7 145.64 78.3 144 79.02 141.76C80.38 137.48 82.1 134.36 84.18 132.4C86.22 130.4 89.06 129.4 92.7 129.4C95.34 129.4 97.68 130.08 99.72 131.44C101.72 132.8 103.28 134.78 104.4 137.38C105.52 139.94 106.08 142.96 106.08 146.44C106.08 153.08 104.06 158.5 100.02 162.7L93.96 157.24C96.68 153.92 98.04 150.46 98.04 146.86C98.04 144.98 97.64 143.52 96.84 142.48C96 141.44 94.9 140.92 93.54 140.92C92.58 140.92 91.8 141.12 91.2 141.52C90.56 141.92 90 142.64 89.52 143.68C89 144.68 88.44 146.16 87.84 148.12C86.36 152.84 84.58 156.16 82.5 158.08C80.42 160 77.8 160.96 74.64 160.96C72.16 160.96 69.98 160.3 68.1 158.98C66.22 157.62 64.78 155.76 63.78 153.4C62.74 151 62.22 148.32 62.22 145.36ZM91.02 91.9553C93.9 91.9553 96.48 92.5953 98.76 93.8753C101.04 95.1153 102.84 96.9953 104.16 99.5153C105.44 102.035 106.08 105.115 106.08 108.755C106.08 114.275 104.74 118.455 102.06 121.295C99.34 124.135 95.66 125.555 91.02 125.555H63.3V114.455H90.66C93.18 114.455 95.04 114.015 96.24 113.135C97.4 112.215 97.98 110.755 97.98 108.755C97.98 106.755 97.38 105.315 96.18 104.435C94.98 103.555 93.14 103.115 90.66 103.115H63.3V91.9553H91.02ZM89.64 71.9477V75.0077H105V86.1077H63.3V71.6477C63.3 65.7677 64.36 61.3877 66.48 58.5077C68.6 55.5877 71.86 54.1277 76.26 54.1277C78.9 54.1277 81.1 54.7477 82.86 55.9877C84.62 57.1877 86.2 59.1277 87.6 61.8077L105 51.4277V63.7877L89.64 71.9477ZM82.08 75.0077V71.2877C82.08 67.4477 80.14 65.5277 76.26 65.5277C74.46 65.5277 73.14 66.0677 72.3 67.1477C71.46 68.1877 71.04 69.7677 71.04 71.8877V75.0077H82.08ZM105 48.9006H63.3V23.2806L71.16 24.4206V37.8006H81.18V26.0406H89.04V37.8006H105V48.9006Z" fill="white"/>
<path d="M62.22 257.92C62.22 252.36 63.98 247.58 67.5 243.58L73.2 249.04C72.12 250.56 71.34 251.94 70.86 253.18C70.34 254.38 70.08 255.76 70.08 257.32C70.08 260.32 71.24 262.68 73.56 264.4C75.88 266.08 79.42 266.92 84.18 266.92C87.66 266.92 90.42 266.64 92.46 266.08C94.46 265.52 95.9 264.68 96.78 263.56C97.66 262.4 98.1 260.92 98.1 259.12C98.1 257.32 97.72 255.68 96.96 254.2H88.38V258.94L80.76 260.02V243.46H101.52C102.96 245.62 104.08 248.06 104.88 250.78C105.68 253.5 106.08 256.18 106.08 258.82C106.08 271.86 98.76 278.38 84.12 278.38C79.56 278.38 75.64 277.5 72.36 275.74C69.04 273.94 66.52 271.5 64.8 268.42C63.08 265.34 62.22 261.84 62.22 257.92ZM62.22 220.335C62.22 214.295 64.14 209.595 67.98 206.235C71.82 202.875 77.2 201.195 84.12 201.195C88.64 201.195 92.56 201.955 95.88 203.475C99.16 204.955 101.68 207.135 103.44 210.015C105.2 212.895 106.08 216.335 106.08 220.335C106.08 226.375 104.16 231.075 100.32 234.435C96.48 237.755 91.08 239.415 84.12 239.415C79.6 239.415 75.7 238.675 72.42 237.195C69.14 235.675 66.62 233.495 64.86 230.655C63.1 227.775 62.22 224.335 62.22 220.335ZM70.2 220.335C70.2 222.935 71.28 224.855 73.44 226.095C75.6 227.295 79.16 227.895 84.12 227.895C89.08 227.895 92.66 227.275 94.86 226.035C97.02 224.795 98.1 222.895 98.1 220.335C98.1 217.695 97.02 215.775 94.86 214.575C92.7 213.375 89.12 212.775 84.12 212.775C79.16 212.775 75.6 213.375 73.44 214.575C71.28 215.775 70.2 217.695 70.2 220.335Z" fill="white"/>
<rect x="85" y="191" width="20" height="1" transform="rotate(-90 85 191)" fill="white"/>
</svg>
